<?xml version="1.0" standalone="no"?>
<!DOCTYPE svg PUBLIC "-//W3C//DTD SVG 20010904//EN"
 "http://www.w3.org/TR/2001/REC-SVG-20010904/DTD/svg10.dtd">
<svg version="1.0" xmlns="http://www.w3.org/2000/svg"
 width="1088.000000pt" height="1088.000000pt" viewBox="0 0 1088.000000 1088.000000"
 preserveAspectRatio="xMidYMid meet">
<metadata>
Created by potrace 1.11, written by Peter Selinger 2001-2013
</metadata>
<g transform="translate(0.000000,1088.000000) scale(0.100000,-0.100000)"
fill="#000000" stroke="none">
<path d="M2480 5480 c0 -5136 1 -5400 18 -5401 76 -4 333 0 341 6 6 3 11 2 11
-3 0 -5 17 -6 40 -2 22 4 40 5 40 1 0 -8 364 -5 385 2 8 4 15 3 15 -2 0 -5 18
-5 40 -1 22 4 40 5 40 1 0 -8 364 -5 385 3 9 3 14 2 11 -2 -5 -8 196 -7 219 1
8 4 15 3 15 -1 0 -5 89 -7 120 -3 9 2 5 51 -3 51 -5 0 -5 5 -2 11 9 13 11 136
3 144 -3 3 -2 21 2 40 5 20 4 33 -1 29 -5 -3 -6 5 -1 18 4 13 6 46 5 73 -3 61
-3 59 0 228 1 75 -2 137 -6 137 -5 0 -5 5 -1 11 9 16 11 129 1 129 -5 0 -5 5
-1 11 10 16 11 69 2 96 -4 13 -4 23 0 23 6 0 8 95 2 110 -1 3 -1 10 0 15 6 28
4 112 -2 108 -5 -2 -4 6 0 19 4 13 6 46 5 73 -3 58 -3 59 -1 226 0 69 -2 131
-6 138 -4 6 -4 11 1 11 4 0 7 28 5 62 -3 76 -3 71 0 135 2 29 0 53 -4 53 -4 0
-4 10 0 23 4 12 6 37 4 55 -3 44 -3 49 0 114 2 31 0 54 -4 51 -5 -2 -4 6 0 19
4 13 6 46 5 73 -3 56 -3 51 -1 232 1 131 1 131 23 123 12 -5 28 -4 35 0 8 5
21 5 31 0 9 -5 19 -7 22 -3 4 3 29 5 57 4 48 -1 66 -1 93 -1 6 1 29 -1 50 -2
20 -2 37 0 37 4 0 3 14 3 30 -2 17 -5 30 -5 30 0 0 4 12 5 28 1 15 -4 42 -4
60 0 17 4 32 4 32 0 0 -6 19 -6 115 -1 22 1 45 1 50 0 6 -1 35 -1 65 0 30 1
61 1 68 1 13 -1 35 -1 55 -1 6 1 38 -1 70 -2 31 -2 57 0 57 4 0 4 14 3 30 -2
17 -5 30 -6 30 -2 0 8 108 7 116 -1 3 -3 19 -1 35 3 16 5 29 5 29 0 0 -5 13
-5 29 0 15 4 34 4 42 0 7 -5 20 -5 30 0 9 5 19 6 23 3 8 -8 102 -7 116 2 5 3
10 2 10 -4 0 -6 11 -6 29 -1 16 4 32 6 35 3 8 -8 86 -9 86 -1 0 4 14 3 30 -2
17 -5 30 -6 30 -2 0 8 108 7 116 -1 3 -3 19 -1 35 3 16 5 29 6 29 2 0 -4 14
-7 30 -7 17 0 30 3 30 7 0 4 14 3 30 -2 19 -5 30 -5 30 1 0 6 5 7 11 4 18 -12
461 -4 569 10 25 3 65 7 90 10 25 3 61 8 80 11 19 2 51 7 70 9 19 3 67 12 105
20 39 9 79 17 90 20 73 15 266 76 365 115 136 53 328 156 402 214 14 12 41 32
59 46 52 40 169 156 169 169 0 6 4 11 9 11 5 0 24 24 42 52 19 29 37 55 41 56
5 2 8 8 8 14 0 6 11 34 24 62 54 116 69 310 32 427 -36 117 -106 233 -192 323
-14 15 -30 67 -28 93 1 18 -2 20 -19 14 -12 -5 -35 -5 -53 -1 -18 4 -38 4 -45
-1 -7 -4 -17 -5 -22 -2 -5 3 -50 4 -100 3 -51 -1 -99 -1 -107 -1 -8 1 -44 1
-80 0 -36 0 -85 0 -110 1 -47 2 -67 2 -140 1 -70 -1 -80 -1 -155 0 -38 0 -78
0 -87 0 -29 0 -136 0 -165 0 -16 0 -48 0 -73 0 -70 -1 -80 -1 -155 0 -38 0
-77 1 -85 1 -8 0 -35 -1 -60 -2 -25 -1 -74 -1 -110 -1 -36 0 -74 1 -85 1 -11
0 -66 1 -122 2 -58 2 -99 -1 -95 -6 3 -5 -1 -6 -8 -1 -14 9 -207 8 -221 -1 -5
-3 -9 -2 -9 3 0 4 -56 8 -124 8 -71 0 -122 -4 -118 -9 3 -5 -1 -6 -8 -1 -14 9
-207 8 -221 -1 -5 -3 -9 -2 -9 3 0 4 -56 8 -124 8 -71 0 -122 -4 -118 -9 3 -5
-1 -6 -8 -1 -14 9 -207 8 -221 -1 -5 -3 -9 -2 -9 3 0 4 -56 8 -124 8 -71 0
-122 -4 -118 -9 3 -5 -1 -6 -8 -1 -14 9 -207 8 -221 -1 -5 -3 -9 -2 -9 3 0 9
-312 8 -336 -1 -8 -3 -14 -2 -14 3 0 4 -13 6 -29 3 l-29 -4 1 126 c1 69 -2
126 -6 126 -5 0 -5 5 -1 11 9 16 11 129 1 129 -5 0 -5 5 -1 11 10 16 11 69 2
96 -4 13 -4 23 0 23 6 0 8 95 2 110 -1 3 -1 10 0 15 6 28 4 105 -2 105 -4 0
-4 10 0 23 4 12 6 45 5 72 -3 58 -3 59 -1 226 0 69 -2 131 -6 138 -4 6 -4 11
1 11 4 0 7 28 5 62 -3 76 -3 71 0 136 2 28 0 52 -4 52 -4 0 -4 10 0 23 4 12 6
37 4 55 -3 44 -3 49 0 114 2 31 0 54 -4 51 -5 -2 -4 6 0 19 4 13 6 46 5 73 -3
61 -3 59 0 228 1 75 -2 137 -6 137 -5 0 -5 5 -1 11 9 16 11 129 1 129 -5 0 -5
5 -1 11 10 16 11 69 2 97 -4 12 -4 22 0 22 6 0 8 95 2 110 -1 3 -1 10 0 15 1
6 1 53 1 105 -2 113 -2 117 0 179 1 27 -1 54 -5 60 -4 6 -4 11 1 11 4 0 8 29
8 64 0 36 -4 62 -9 59 -5 -4 -6 -1 -1 6 10 17 12 181 2 181 -5 0 -6 4 -2 9 4
8 6 51 5 184 0 9 0 39 1 66 1 27 -1 54 -5 60 -4 6 -4 11 1 11 4 0 8 29 8 64 0
36 -4 62 -9 59 -5 -4 -6 -1 -1 6 9 16 12 181 3 181 -4 0 -5 6 -2 14 9 22 10
206 1 206 -5 0 -5 5 -1 11 9 16 11 129 1 129 -5 0 -5 5 -1 11 10 16 11 69 2
97 -4 12 -4 22 0 22 6 0 8 95 2 110 -1 3 -1 10 0 15 5 27 3 192 -3 202 -4 7
-3 14 1 17 5 3 7 22 5 42 -4 36 12 69 28 58 12 -7 79 -11 79 -5 0 8 105 5 118
-3 6 -3 13 -2 16 3 4 5 18 6 34 2 15 -5 36 -5 47 -1 11 4 32 4 47 -1 15 -4 30
-4 33 1 3 5 18 5 33 2 15 -4 41 -6 57 -5 60 6 124 5 134 -2 6 -3 11 -1 11 5 0
6 5 8 11 5 6 -4 33 -7 60 -6 27 1 71 1 98 2 27 1 54 -2 60 -5 5 -4 12 -2 15 3
4 6 18 6 35 1 15 -4 34 -4 41 0 7 4 26 4 41 0 16 -5 31 -5 34 0 3 5 18 5 33 1
15 -5 36 -5 47 -1 11 4 32 4 47 -1 15 -4 30 -4 33 1 3 5 18 5 33 1 15 -4 38
-5 52 -1 14 4 37 3 52 -1 15 -4 30 -4 33 1 3 5 18 5 33 1 15 -4 43 -6 62 -5
54 4 66 4 212 2 76 -2 138 0 138 4 0 4 7 5 15 1 21 -7 1025 -10 1025 -2 0 4
15 4 33 2 30 -4 49 -4 169 -2 25 1 51 -2 57 -5 5 -4 12 -2 15 3 4 6 18 6 35 1
15 -4 34 -4 41 0 7 4 26 4 41 0 16 -5 31 -5 34 0 3 5 18 5 33 1 15 -5 36 -5
47 -1 11 4 32 4 47 -1 15 -4 30 -4 33 1 3 5 18 5 33 1 15 -4 38 -5 52 -1 14 4
37 3 52 -1 15 -4 30 -4 33 1 3 5 18 5 33 2 15 -4 41 -6 57 -5 59 6 124 5 133
-1 6 -3 13 0 15 6 3 7 6 8 6 3 1 -7 21 -9 53 -5 43 4 53 9 56 25 4 21 30 57
81 115 17 19 38 49 46 67 9 18 20 35 24 38 5 3 12 19 16 35 4 17 10 30 14 30
6 0 34 84 47 142 23 99 9 256 -31 363 -64 168 -208 339 -390 460 -33 22 -62
42 -65 45 -16 16 -274 147 -300 152 -8 2 -17 5 -20 8 -14 15 -330 112 -410
126 -71 13 -85 20 -88 47 l-3 27 -2280 0 -2279 0 0 -5400z"/>
<path d="M4771 8600 c-5 -3 -8 -16 -7 -30 1 -14 -1 -36 -4 -50 -4 -14 -3 -37
1 -52 4 -18 3 -28 -3 -28 -7 0 -6 -5 1 -14 7 -8 8 -16 4 -19 -4 -3 -6 -42 -3
-86 3 -45 2 -90 -1 -99 -4 -9 -3 -26 1 -38 5 -11 5 -27 0 -34 -4 -7 -4 -24 0
-39 4 -14 4 -35 0 -46 -4 -11 -3 -30 1 -43 5 -13 5 -30 1 -39 -5 -8 -6 -34 -2
-59 4 -26 3 -44 -3 -44 -5 0 -4 -6 2 -14 7 -8 8 -17 3 -20 -5 -3 -6 -27 -2
-53 3 -27 3 -60 0 -73 -4 -14 -3 -37 1 -52 5 -18 4 -28 -3 -28 -7 0 -6 -5 1
-14 7 -8 8 -17 3 -20 -5 -3 -6 -27 -2 -54 3 -27 3 -60 -1 -74 -4 -14 -3 -31 1
-38 4 -7 5 -24 1 -38 -4 -14 -4 -47 -1 -72 3 -26 3 -56 -1 -66 -3 -11 -3 -28
1 -40 5 -11 5 -27 0 -34 -4 -7 -4 -24 0 -39 4 -14 4 -35 0 -46 -4 -11 -4 -30
1 -42 5 -13 5 -23 1 -23 -5 0 -6 -21 -2 -48 3 -26 3 -59 0 -72 -3 -14 -3 -44
0 -67 4 -24 3 -43 -1 -43 -4 0 -5 -12 -2 -27 3 -16 5 -34 4 -40 -2 -29 -3 -41
-1 -96 2 -32 0 -60 -3 -63 -3 -3 -1 -19 3 -35 6 -19 5 -29 -2 -29 -7 0 -6 -5
1 -14 7 -8 8 -16 4 -19 -4 -3 -6 -42 -3 -86 3 -45 2 -90 -1 -99 -4 -9 -3 -26
1 -38 5 -11 5 -27 0 -34 -4 -7 -4 -24 0 -39 4 -14 4 -35 0 -46 -4 -11 -3 -30
1 -43 5 -13 5 -30 1 -39 -5 -8 -6 -34 -2 -59 4 -26 3 -44 -3 -44 -5 0 -4 -6 2
-14 7 -8 8 -17 3 -20 -5 -3 -6 -27 -2 -53 3 -27 3 -60 0 -73 -4 -14 -3 -37 1
-52 5 -18 4 -28 -3 -28 -7 0 -6 -5 1 -14 7 -8 8 -17 3 -20 -5 -3 -6 -27 -2
-54 3 -27 3 -60 -1 -74 -4 -14 -3 -31 1 -38 4 -7 5 -24 1 -38 -4 -14 -4 -47
-1 -72 3 -26 3 -56 -1 -66 -3 -11 -3 -28 1 -40 5 -11 5 -27 0 -34 -4 -7 -4
-24 0 -39 4 -14 4 -35 0 -46 -4 -11 -4 -30 1 -42 5 -15 5 -23 -2 -23 -6 0 -8
-4 -5 -9 3 -4 6 -31 7 -60 1 -28 7 -51 13 -52 6 0 29 0 51 0 38 1 111 1 138 0
6 0 76 0 155 1 78 0 146 -2 151 -5 6 -3 12 -1 16 5 4 6 10 8 14 6 11 -7 90 -9
284 -6 28 0 66 0 82 -1 17 0 37 -1 45 0 8 0 42 0 75 0 33 0 67 0 75 0 8 1 24
1 35 1 11 -1 25 -1 30 -2 6 0 56 1 112 2 56 1 106 -1 112 -4 5 -4 12 -2 16 4
4 6 11 7 17 4 13 -8 195 -7 209 1 5 4 9 3 9 -2 0 -4 40 -6 90 -3 49 3 103 2
120 -1 17 -4 33 -3 36 2 3 5 10 6 16 3 13 -8 195 -7 209 1 5 4 9 3 9 -2 0 -4
42 -6 92 -3 51 3 124 3 161 0 38 -3 71 -2 74 3 2 4 8 5 12 3 11 -7 195 -10
344 -5 6 0 30 0 52 0 22 0 47 0 55 0 8 1 76 1 150 0 74 0 142 0 150 1 8 0 20
-1 25 -2 6 -1 63 -2 127 -1 l117 1 -1 33 c-1 19 2 39 6 45 3 6 2 14 -4 17 -7
4 -8 11 -2 18 5 7 6 21 2 32 -4 11 -4 29 0 41 5 11 5 27 0 34 -4 7 -4 24 0 39
4 14 4 35 0 46 -4 11 -4 29 0 40 4 11 4 32 0 46 -4 15 -4 32 0 39 5 7 5 23 0
34 -4 12 -4 30 0 42 5 11 5 27 0 34 -4 7 -4 24 0 39 4 14 4 35 0 46 -4 11 -4
29 0 40 4 11 4 32 0 46 -4 15 -4 32 0 39 5 7 5 23 0 34 -4 12 -4 30 0 42 5 11
5 27 0 34 -4 7 -4 24 0 39 4 14 4 35 0 46 -4 11 -4 29 0 40 4 11 4 32 0 46 -4
15 -4 32 0 39 5 7 5 23 0 34 -4 12 -4 30 0 42 5 11 5 27 0 34 -4 7 -4 24 0 39
4 14 4 35 0 46 -4 11 -4 30 1 41 4 12 5 24 2 27 -3 3 -4 30 -4 59 2 85 2 119
0 179 -1 31 1 61 5 67 3 6 2 13 -3 16 -5 4 -6 18 -2 34 5 15 6 36 4 47 -6 35
-6 132 1 143 3 6 2 13 -3 16 -5 4 -6 18 -2 34 5 15 6 36 4 47 -6 35 -6 132 1
143 3 6 2 13 -3 16 -5 4 -6 18 -2 34 5 15 6 36 4 47 -6 35 -6 132 1 143 3 6 2
13 -3 16 -5 4 -6 18 -2 34 5 15 6 36 4 47 -6 35 -6 132 1 143 3 6 2 13 -3 16
-6 4 -6 18 -1 37 5 17 5 40 1 52 -5 12 -5 31 -1 43 5 11 5 27 0 34 -4 7 -4 24
0 39 4 14 4 35 0 46 -4 11 -4 29 0 40 4 11 4 32 0 46 -4 15 -4 32 0 39 5 7 5
23 0 34 -4 12 -4 30 0 42 5 11 5 27 0 34 -4 7 -4 24 0 39 4 14 4 35 0 46 -4
11 -4 29 0 40 4 11 4 32 0 46 -4 15 -4 32 0 39 5 7 5 23 0 34 -4 12 -4 30 0
41 4 11 4 29 0 40 -4 11 -4 29 0 40 4 11 4 32 0 46 -4 14 -3 33 2 42 6 11 5
17 -1 17 -6 0 -8 6 -5 14 4 11 -7 15 -46 17 -28 2 -59 1 -68 -2 -9 -4 -26 -3
-37 1 -11 3 -33 4 -50 0 -16 -3 -49 -3 -72 1 -23 3 -48 2 -54 -2 -7 -4 -23 -3
-35 1 -14 6 -26 5 -29 0 -3 -5 -15 -6 -28 -1 -12 5 -31 5 -42 1 -11 -4 -24 -5
-28 -3 -10 6 -187 6 -193 0 -3 -3 -20 -1 -39 3 -21 5 -38 3 -44 -3 -8 -8 -11
-7 -11 1 0 9 -5 10 -19 3 -10 -6 -21 -8 -24 -5 -3 3 -43 5 -89 5 -137 -2 -170
-1 -178 4 -5 3 -11 2 -13 -2 -3 -5 -48 -6 -102 -3 -53 3 -104 2 -113 -1 -9 -3
-31 -3 -49 1 -19 5 -36 3 -42 -3 -8 -8 -11 -7 -11 1 0 9 -5 10 -19 3 -10 -6
-21 -8 -24 -5 -3 3 -43 5 -89 5 -137 -2 -170 -1 -178 4 -5 3 -11 2 -13 -2 -3
-5 -48 -6 -102 -3 -53 3 -104 2 -113 -1 -9 -3 -31 -3 -49 1 -19 5 -36 3 -42
-3 -8 -8 -11 -7 -11 1 0 9 -5 10 -19 3 -10 -6 -21 -8 -24 -5 -3 3 -43 5 -89 5
-137 -2 -170 -1 -178 4 -5 3 -11 2 -13 -2 -3 -5 -48 -6 -102 -3 -53 3 -104 2
-113 -1 -9 -3 -31 -3 -49 1 -19 5 -36 3 -42 -3 -8 -8 -11 -7 -11 1 0 9 -5 10
-19 3 -10 -6 -21 -8 -24 -5 -3 3 -43 5 -89 5 -137 -2 -170 -1 -178 4 -5 3 -11
2 -13 -2 -3 -5 -44 -6 -92 -3 -48 3 -92 2 -98 -2 -6 -3 -21 -2 -33 2 -14 6
-26 5 -29 0 -3 -5 -15 -6 -28 -1 -12 5 -31 5 -42 1 -11 -4 -23 -6 -27 -3 -12
6 -88 9 -97 3z"/>
</g>
</svg>
